<svg width="1237" height="1029" viewBox="0 0 1237 1029" fill="none" xmlns="http://www.w3.org/2000/svg">
<path d="M74.8726 378.338C34.638 335.099 25.3234 311.248 25.3234 311.248C25.3234 311.248 -18.2658 246.018 8.93246 150.595C36.1307 55.1722 122.933 22.7414 122.933 22.7414C122.933 22.7414 156.833 -0.368766 240.284 0.00447276C323.735 0.377711 380.735 54.0531 393.403 71.5699C398.286 78.3239 403.412 82.6349 407.868 85.3832L434.605 72.3175L411.157 183.649L280.765 147.494L312.899 131.79C308.856 126.881 276.943 90.0108 228.579 87.7495C176.758 85.3266 125.42 114.584 111.375 150.592C97.3303 186.6 78.4399 227.304 120.092 289.814C161.745 352.324 242.624 337.299 242.624 337.299L291.46 329.893L208.464 439.228C208.464 439.228 115.107 421.576 74.8726 378.338Z" fill="url(#paint0_linear_14_270)"/>
<path d="M727.711 619.64H606.875C606.875 619.64 556.329 618.275 556.329 564.285C556.329 510.295 616.438 514.398 616.438 514.398H711.381L722.368 575.431L727.711 619.64Z" fill="url(#paint1_linear_14_270)"/>
<path d="M498.875 599.446C498.875 599.446 529.007 751.539 696.352 777.509H815.886V672.266H606.191C606.191 672.266 527.939 673.939 501.983 604.23L498.875 599.446Z" fill="url(#paint2_linear_14_270)"/>
<path d="M399.126 604.045C399.126 604.045 415.94 797.595 695.689 777.43C695.689 777.43 647.857 769.306 600.727 741.286C553.598 713.266 484.609 625.791 501.002 551.983C517.395 478.175 571.83 464.344 571.83 464.344C571.83 464.344 463.607 463.947 402.817 604.044L399.126 604.045Z" fill="url(#paint3_linear_14_270)"/>
<path d="M712.944 546.744C711.026 543.73 709.933 540.265 709.776 536.695C709.705 532.797 709.443 527.586 708.693 520.965C704.081 480.231 680.031 395.409 563.652 360.597C563.652 360.597 373.273 390.706 399.911 611.444C399.911 611.444 446.359 475.447 585.7 462.462C585.7 462.462 664.251 444.695 705.917 528.07L709.776 539.591L712.944 546.744Z" fill="url(#paint4_linear_14_270)"/>
<path d="M718.472 619.669L816.615 620.003C816.615 620.003 847.992 333.979 563.16 360.633C563.16 360.633 673.151 392.019 703.869 508.931C703.869 508.931 710.723 538.218 714.373 565.903C716.64 583.745 718.008 601.69 718.472 619.669Z" fill="url(#paint5_linear_14_270)"/>
<path d="M141.911 915.17H633.005C633.005 915.17 730.405 928.274 826.986 828.365C923.567 728.457 923.083 657.62 928.406 590.55C933.729 523.481 860.729 336.892 695.77 292.166C530.812 247.439 421.225 323.052 355.69 407.665C290.154 492.279 291.278 553.296 294.667 645.364C295.878 678.181 303.976 699.978 313.901 714.442L375.985 686.786L323.558 866.156L136.664 793.394L207.937 761.645C203.941 737.61 184.956 694.54 179.499 645.364C157.454 446.752 290.056 312.449 290.056 312.449C290.056 312.449 457.849 125.736 695.77 181.422C933.692 237.108 1003.78 424.639 1003.78 424.639C1003.78 424.639 1100.36 638.376 970.221 828.365C840.083 1018.35 675.562 1024.09 675.562 1024.09L141.911 1029V915.17Z" fill="url(#paint6_linear_14_270)"/>
<path d="M869.256 982.406H1122.02V1027.42L1237 916.426L1122.02 822.903V863.123H998.861C998.861 863.123 978.906 902.896 940.729 932.717C917.853 950.605 893.991 967.194 869.256 982.406Z" fill="url(#paint7_linear_14_270)"/>
<defs>
<linearGradient id="paint0_linear_14_270" x1="288.578" y1="-175.252" x2="171.007" y2="551.282" gradientUnits="userSpaceOnUse">
<stop stop-color="#03CBC5"/>
<stop offset="0.454" stop-color="#02D5BC"/>
<stop offset="0.731" stop-color="#01E8AB"/>
<stop offset="1" stop-color="#06F0A1"/>
</linearGradient>
<linearGradient id="paint1_linear_14_270" x1="717.599" y1="558.663" x2="563.368" y2="580.428" gradientUnits="userSpaceOnUse">
<stop stop-color="#03C7C8"/>
<stop offset="1" stop-color="#01DDB4"/>
</linearGradient>
<linearGradient id="paint2_linear_14_270" x1="556.571" y1="743.143" x2="624.99" y2="678.791" gradientUnits="userSpaceOnUse">
<stop stop-color="#03C7C8"/>
<stop offset="1" stop-color="#01DDB4"/>
</linearGradient>
<linearGradient id="paint3_linear_14_270" x1="431.748" y1="534.176" x2="605.349" y2="743.493" gradientUnits="userSpaceOnUse">
<stop stop-color="#02CFC1"/>
<stop offset="1" stop-color="#01ECA8"/>
</linearGradient>
<linearGradient id="paint4_linear_14_270" x1="641.306" y1="393.458" x2="492.702" y2="517.759" gradientUnits="userSpaceOnUse">
<stop stop-color="#02CFC1"/>
<stop offset="1" stop-color="#01ECA8"/>
</linearGradient>
<linearGradient id="paint5_linear_14_270" x1="690.399" y1="358.88" x2="690.399" y2="620.003" gradientUnits="userSpaceOnUse">
<stop stop-color="#01F4A1"/>
<stop offset="1" stop-color="#02D3BE"/>
</linearGradient>
<linearGradient id="paint6_linear_14_270" x1="587.459" y1="171.051" x2="587.459" y2="1029" gradientUnits="userSpaceOnUse">
<stop stop-color="#03CBC5"/>
<stop offset="0.454" stop-color="#02D5BC"/>
<stop offset="0.731" stop-color="#01E8AB"/>
<stop offset="1" stop-color="#06F0A1"/>
</linearGradient>
<linearGradient id="paint7_linear_14_270" x1="1053.13" y1="822.903" x2="1053.13" y2="1027.42" gradientUnits="userSpaceOnUse">
<stop stop-color="#03CBC5"/>
<stop offset="0.454" stop-color="#02D5BC"/>
<stop offset="0.731" stop-color="#01E8AB"/>
<stop offset="1" stop-color="#06F0A1"/>
</linearGradient>
</defs>
</svg>
